<?xml version="1.0" encoding="utf-8"?>
<!-- Generator: Adobe Illustrator 27.6.1, SVG Export Plug-In . SVG Version: 6.00 Build 0)  -->
<svg version="1.1" id="Capa_1" xmlns="http://www.w3.org/2000/svg" xmlns:xlink="http://www.w3.org/1999/xlink" x="0px" y="0px"
	 viewBox="0 0 307.1 186.8" style="enable-background:new 0 0 307.1 186.8;" xml:space="preserve">
<style type="text/css">
	.st0{fill:#1499A3;}
	.st1{fill:#245778;}
	.st2{fill:none;}
	.st3{font-family:'FranklinGothic-DemiItalic';}
	.st4{font-size:59px;}
	.st5{letter-spacing:16;}
</style>
<g>
	<g>
		<path class="st0" d="M99,61.9c2.2-0.4,4.4-0.8,6.6-1.2c-1-1-2.1-2-3.1-3c-0.5,4.8,0.2,9.7,1.9,14.2c1.6,4.3,3.9,8.6,8.1,10.9
			c4.3,2.4,9.5,2.8,14.2,1.2c2.1-0.7,3.7-2,5.6-3c1.9-1,3.9-1.9,5.9-2.5c4.4-1.4,8.8-1.6,13.4-1.4c4.9,0.2,9.7,0.6,14.4,2.3
			c1.8,0.6,3.5,1.4,5.1,2.2c1.2,0.7,2.3,1.3,3.7,1.7c4.5,1.3,9.3,1.2,13.6-0.7c3.3-1.5,5.6-3.9,7.6-6.9c3-4.5,4.7-9.8,4.5-15.2
			c-0.4,0.4-0.9,0.9-1.3,1.3c3.2-0.5,6.5-1,9.7-1.5c2.8-0.4,0.5-4.7-1.8-4.3c-3.2,0.5-6.5,1-9.7,1.5c-0.6,0.1-1.3,0.6-1.3,1.3
			c0.2,4.4-0.9,8.6-3.1,12.5c-1.3,2.3-3.1,4.7-5.3,6.1c-3.4,2.3-7.7,2.9-11.7,2c-0.6-0.1-1.2-0.3-1.8-0.5c-0.2-0.1-0.4-0.2-0.7-0.3
			c-0.5-0.2,0.3,0.2-0.3-0.2c-1.5-0.9-3.2-1.7-4.8-2.4c-4.3-1.8-9-2.9-13.7-3.3c-3.8-0.3-7.8-0.5-11.7-0.1
			c-4.6,0.5-9.2,1.8-13.3,3.9c-1.6,0.8-3.1,2-4.7,2.7c-2.1,0.9-4.5,1.3-6.8,1.1c-2-0.2-4.1-0.8-5.7-2.1c-1.5-1.2-2.4-3-3.2-4.8
			c-2.1-4.5-2.9-9.4-2.5-14.3c0.1-1.5-1.5-3.3-3.1-3c-2.2,0.4-4.4,0.8-6.6,1.2C94.4,58.1,96.7,62.3,99,61.9L99,61.9z"/>
	</g>
</g>
<g>
	<g>
		<path class="st0" d="M109.8,78.6c-0.9,1.8-1.6,3.7-2.2,5.6c-0.9,2.9-1.8,6.4-0.7,9.4c0.5,1.3,1.5,2.8,2.9,3.2
			c1,0.2,1.8-0.4,2.5-1.1c1.7-1.8,2.7-4.3,3.6-6.6c0.7-1.8,1.4-3.6,2-5.5c0.3-0.8-0.4-1.9-1-2.4c-0.5-0.5-1.2-0.7-1.5,0.1
			c-1.1,3.5-2.4,7.1-4.4,10.2c-0.3,0.4-0.5,0.8-0.9,1.1c-0.1,0.1-0.1,0.2-0.2,0.2c0.1-0.1,0,0-0.1,0c-0.2,0.1-0.3,0.2-0.5,0.3
			c-0.1,0-0.1,0.1-0.2,0.1c-0.2,0.1,0.2,0,0,0c-0.1,0-0.1,0-0.2,0c-0.2,0-0.1,0,0,0c-0.2-0.1-0.1,0,0,0c0.1,0,0.2,0.1,0,0
			c-0.1-0.1,0.2,0.2,0.2,0.1c-0.1-0.1-0.1-0.1-0.2-0.2c0.3,0.3,0.2,0.2,0.1,0.1c0,0,0.3,0.4,0.1,0.1c0-0.1-0.1-0.1-0.1-0.2
			c0,0,0.2,0.4,0.1,0.2c-0.1-0.1-0.1-0.5,0-0.1c0-0.1-0.1-0.2-0.1-0.4c0-0.1,0-0.2,0-0.2c0,0.1,0,0.2,0,0c-0.1-0.6,0-1.3,0-1.7
			c0.2-1.4,0.5-2.8,0.9-4.2c0.6-2,1.3-3.8,2.2-5.6c0.4-0.8-0.1-1.7-0.5-2.3C111.2,78.8,110.2,77.8,109.8,78.6L109.8,78.6z"/>
	</g>
</g>
<g>
	<g>
		<path class="st0" d="M184.2,81.2C184.3,81.6,184.2,80.7,184.2,81.2c0,0.4,0.1,0.8,0.1,1.1c0.1,1.2,0.2,2.4,0.2,3.6
			c0,2.5,0,5.5-1.3,7.6c-0.3,0.5-0.5,0.8-1,1.1c-0.1,0.1-0.3,0.2-0.4,0.2c0,0,0.2,0,0,0c-0.1,0-0.2,0-0.2,0c0.2,0,0.2,0.1,0,0
			c-0.1,0,0.3,0.2,0.1,0c-0.3-0.2,0.3,0.2,0.1,0.1c-0.3-0.2,0.2,0.3,0.1,0.1c-0.2-0.3,0.1,0.1,0.1,0.2c0,0-0.1-0.2-0.1-0.3
			c-0.2-0.4,0,0.1,0,0.1c0,0-0.1-0.3-0.2-0.4c0-0.1-0.1-0.2-0.1-0.3c0-0.1-0.2-0.5-0.1-0.2c0.1,0.3,0-0.1-0.1-0.2
			c0-0.1-0.1-0.3-0.1-0.4c-0.1-0.6-0.2-1.1-0.3-1.7c0-0.3-0.1-0.6-0.1-0.8c0-0.2,0,0.1,0,0.1c0-0.1,0-0.2,0-0.3c0-0.2,0-0.3-0.1-0.5
			c-0.1-0.6-0.1-1.2-0.2-1.8c-0.1-1.6-0.2-3.2-0.2-4.8c0-0.9-0.6-1.9-1.3-2.3c-0.7-0.4-1.2-0.1-1.2,0.7c0,1.5,0.1,3.1,0.2,4.6
			c0.2,2.7,0.5,5.5,1.4,8c0.7,1.9,2.8,4.8,5,3c2.3-1.9,2.5-5.6,2.6-8.4c0.1-2.4-0.1-4.8-0.4-7.2c-0.1-0.8-0.8-1.8-1.6-2.1
			C184.2,79.7,184.2,80.6,184.2,81.2L184.2,81.2z"/>
	</g>
</g>
<path class="st1" d="M150,52.1c-8.5,0-15.3,2.3-15.3,5.2s6.6,7.2,15.1,7.2c8.5,0,15.6-4.3,15.6-7.2S158.4,52.1,150,52.1z
	 M155.7,55.3c-2.9,0.1-3.2-0.4-5.7-0.5c-2.8,0-3.3,0.6-6.2,0.4c-1.3-0.1-3.3-0.4-3.3-0.7c0-0.5,5.1-0.9,9.8-0.8
	c4.3,0.1,8.9,0.7,8.9,1.1C159.1,55.1,156.9,55.2,155.7,55.3z"/>
<path class="st1" d="M227.2,104.3H221c-2,0-3.7-1.6-3.7-3.7V36.4c0-2,1.6-3.7,3.7-3.7h6.2c2,0,3.7,1.6,3.7,3.7v64.2
	C230.9,102.6,229.2,104.3,227.2,104.3z"/>
<path class="st1" d="M85.3,104.3h-7.4c-1.8,0-3.3-1.5-3.3-3.3V36.1c0-1.8,1.5-3.3,3.3-3.3h7.4c1.8,0,3.3,1.5,3.3,3.3V101
	C88.6,102.8,87.1,104.3,85.3,104.3z"/>
<path class="st1" d="M54.6,92.6h-2.9c-3,0-5.5-2.5-5.5-5.5V50.2c0-3,2.5-5.5,5.5-5.5h2.9c3,0,5.5,2.5,5.5,5.5v36.8
	C60.2,90.1,57.7,92.6,54.6,92.6z"/>
<path class="st1" d="M254.8,92.6h-5.4c-2.8,0-5.1-2.3-5.1-5.1V49.9c0-2.8,2.3-5.1,5.1-5.1h5.4c2.8,0,5.1,2.3,5.1,5.1v37.6
	C260,90.3,257.7,92.6,254.8,92.6z"/>
<path class="st1" d="M28,80.2h-4.6c-2.6,0-4.7-2.1-4.7-4.7v-9.7c0-2.6,2.1-4.7,4.7-4.7H28c2.6,0,4.7,2.1,4.7,4.7v9.7
	C32.7,78.1,30.6,80.2,28,80.2z"/>
<path class="st1" d="M283,78.3h-5c-2.5,0-4.6-2.1-4.6-4.6V63.6c0-2.5,2.1-4.6,4.6-4.6h5c2.5,0,4.6,2.1,4.6,4.6v10.1
	C287.6,76.2,285.5,78.3,283,78.3z"/>
<g>
	<rect x="12.6" y="128.3" class="st2" width="298.2" height="70"/>
	<text transform="matrix(1 0 0 1 12.6006 167.6322)" class="st0 st3 st4 st5">NUTRIS</text>
</g>
</svg>
