<?xml version="1.0" encoding="utf-8"?>
<!-- Generator: Adobe Illustrator 27.6.1, SVG Export Plug-In . SVG Version: 6.00 Build 0)  -->
<svg version="1.1" id="Capa_1" xmlns="http://www.w3.org/2000/svg" xmlns:xlink="http://www.w3.org/1999/xlink" x="0px" y="0px"
	 viewBox="0 0 200 224.6" style="enable-background:new 0 0 200 224.6;" xml:space="preserve">
<style type="text/css">
	.st0{fill:#1499A3;}
	.st1{fill:#EA9411;}
	.st2{fill:none;stroke:#1499A3;stroke-width:2;stroke-miterlimit:10;}
	.st3{fill:none;}
	.st4{fill:#245778;}
	.st5{font-family:'FranklinGothic-DemiItalic';}
	.st6{font-size:59px;}
</style>
<path class="st0" d="M113.1,107.6c-5.2,0-9.3-2.1-10.7-2.9c-3.1-1.5-8.3-3.4-14.6-3.1c-4.1,0.1-8,1.1-11.7,2.8l-0.3,0.1
	c-4.7,0.8-11.8,0.9-18.7-2.8c-3-1.6-9.9-5.4-10-11.8c0-1,0.1-1.9,0.4-2.9L47,86.6l2.4-3.2c5.5-7.4,13.7-3.5,14.5-3.1l15.6,6.1
	c1.4,0.3,4.1,0.4,4.4-0.6c0.5-1.7-1.1-2.9-1.2-2.9c-3.1-1.9-3.9-4.9-4.1-5.4c-0.2-0.6-1.3-4.3,2.4-7.8c3.8-3.5,8.5-2.8,8.7-2.7
	l13.4,2.9c4.1,0.9,4.9,3.3,5.2,5c0.3,1.9-0.7,4.9-3.7,5.6c-1.3,0.3-2.1,0.7-2.5,1l-0.5,0.4c-0.8,0.6-1.3,1.3-1.4,2.1
	c-0.1,1.1,0.6,2.2,0.8,2.4c0.5,0.4,5.1,3.9,12.4-2.2c3.3-2.8,6.7-3.8,9.9-3c3.8,0.9,6.3,4.2,7.1,6.2c1,2.5,2.1,3.3,2.1,3.3l0.5,0.4
	l-0.1,0.7c-0.1,0.5-2.8,11.2-13.3,14.8C117.2,107.3,115.1,107.6,113.1,107.6z M88.9,99.5c6.2,0,11.3,1.8,14.5,3.4
	c1.3,0.8,7.9,4.3,15.5,1.7c8.3-2.8,11.2-10.7,11.8-12.9c-0.6-0.6-1.4-1.7-2.2-3.7c-0.6-1.5-2.7-4.3-5.8-5c-2.6-0.6-5.3,0.2-8.1,2.6
	c-8.9,7.5-15,2.1-15.1,2.1l-0.1-0.1c-0.1-0.1-1.6-1.8-1.3-4c0.1-1.3,0.8-2.5,2.1-3.4c0.1-0.1,0.3-0.3,0.6-0.5l0.4-0.3l0,0
	c0.6-0.3,1.5-0.7,2.8-1c2-0.5,2.3-2.5,2.2-3.4c-0.1-0.9-0.4-2.7-3.6-3.4L89.3,69l0,0c0,0-3.9-0.6-7,2.2c-2.9,2.8-1.9,5.7-1.9,5.7
	l0,0.1c0,0,0.7,2.6,3.2,4.3c0.2,0.1,2.8,2.1,2,5.1c-0.9,3.2-6.2,2.1-6.8,2l-0.1,0L63,82.1c-0.3-0.2-7.3-3.8-12,2.5
	c-1.3,1.7-1.9,3.5-1.9,5.2c0.1,5.2,6.3,8.6,9,10.1c6.3,3.4,12.8,3.3,17.3,2.6c3.9-1.8,8.1-2.8,12.4-3C88.1,99.6,88.5,99.5,88.9,99.5
	z"/>
<g>
	<g>
		<path class="st0" d="M27.2,76.8c-0.2,2.7-0.4,5.3-0.7,8c-0.1,1-0.3,2.5-0.4,3.3c-0.1,0.8-0.3,2.3-0.5,3.4
			c-0.4,2.3-0.8,4.5-1.4,6.8c-0.1,0.5-0.3,1-0.5,1.5c-0.1,0.2-0.2,0.5-0.3,0.7c0.2-0.5,0.1-0.1-0.1,0.1c-0.2,0.4-0.4,0.7-0.6,1
			c-0.3,0.5,0.3-0.4,0,0c-0.4,0.4,0.2-0.1,0.1,0c-1,0.7-1.5,1.9-1,3.1c0.5,1,1.8,1.9,2.9,1.4c3.9-1.5,8.7-4.4,9-9.1
			c-1.7,0-3.3,0-5,0c0,0.7,0,1.4,0,2.1c0,0.8-0.1,1.6-0.2,2.3c0,0.2,0,0.4-0.1,0.6c-0.1,0.6,0-0.2,0,0.3c-0.1,0.5-0.2,1.1-0.3,1.6
			c-0.9,4.7-2.7,9.3-6.1,12.8c-0.9,1-1,2.6,0,3.5c1,1,2.5,0.8,3.5,0c3.6-2.9,7.1-5.7,10.7-8.6c-1.2,0-2.4,0-3.5,0
			c4.9,5.1,10.2,9.9,15.6,14.4c10.2,8.6,21.2,16.8,33.4,22.1c3.7,1.6,7.3,2.7,11.4,1.8c1.6-0.3,3.1-1,4.5-1.8c2-1.1,4-2.3,6-3.5
			c7.5-4.3,15.1-8.7,22.6-13c3.5-2,6.9-4,10.4-6c1.8-1.1,3.8-2,5.6-3.2c0.1-0.1,0.2-0.1,0.3-0.2c-1.1-0.3-2.3-0.6-3.4-0.9
			c1.6,2.8,3.2,5.7,4.7,8.5c0.6,1.1,2.4,1.7,3.4,0.9c1.7-1.3,2.4-3.4,2.7-5.4c1-6.4-0.8-13.1-2.7-19.2c-1.5,0.6-3,1.3-4.6,1.9
			c1.8,3.6,4.7,7.6,8.9,8.2c2,0.3,2.9-2.3,2.2-3.8c-0.1-0.2-0.2-0.3-0.2-0.5c-0.1-0.2-0.2-0.4-0.3-0.6c-0.1-0.2-0.1-0.3-0.2-0.5
			c0.1,0.2,0.1,0.3,0,0.1c-0.7-1.7-1.3-3.5-1.8-5.2c-1.2-4.6-1.7-9.4-0.3-14c0.5-1.7-1.3-3.7-3.1-3.1c-1.9,0.7-3.8,1.2-5.8,1.5
			c-2.9,0.5-6.5,0.6-9.1-1.2c0.4,0.7,0.8,1.4,1.2,2.2c-0.6-4.7-1.2-9.4-1.8-14.1c-0.2-1.3-1-2.6-2.5-2.5c-6.4,0.5-12.8,1-19.1,1.5
			c0.8,0.8,1.7,1.7,2.5,2.5c-0.4-3.6-0.8-7.1-1.2-10.7c-0.1-1.1-0.7-2.1-1.8-2.4c-3-0.9-5.9-1.7-8.9-2.6c-0.2-0.1-0.4-0.1-0.7-0.2
			c-0.5-0.2,0.5,0.4-0.1-0.2c-1-0.9-2.5-1.5-3.7-2c-3.3-1.5-6.9-2.4-10.6-2.3c-3.1,0.1-6,1-8.8,2.4c-2.4,1.1-4.6,2.6-7,3.6
			c-4.9,2.1-9.9,2.1-15.1,0.5c-1-0.3-1.9-0.6-2.8-1c-1-0.4-2.2-1.2-3.3-1.2c-1.1,0-2.4,0.5-3.5,0.8c-1.1,0.3-2.2,0.6-3.3,0.8
			c-4.4,1.1-8.8,2.3-13.3,3.4c-1.1,0.3-1.8,1.3-1.8,2.4C27.2,72.4,27.2,74.6,27.2,76.8c0,3.2,5,3.2,5,0c0-2.2,0-4.4,0-6.6
			c-0.6,0.8-1.2,1.6-1.8,2.4c6.5-1.7,13-3.3,19.4-5c-0.6-0.1-1.3-0.2-1.9-0.3c4.8,2.3,10.1,3.9,15.4,3.7c4.9-0.2,9.3-2,13.6-4.3
			c4.2-2.3,8.3-3.9,13.2-2.9c2.5,0.5,4.8,1.5,7,2.8c1.1,0.7,2.1,1.2,3.4,1.5c2.8,0.8,5.6,1.6,8.4,2.5c-0.6-0.8-1.2-1.6-1.8-2.4
			c0.4,3.6,0.8,7.1,1.2,10.7c0.1,1.3,1,2.6,2.5,2.5c6.4-0.5,12.8-1,19.1-1.5c-0.8-0.8-1.7-1.7-2.5-2.5c0.5,3.9,1,7.9,1.5,11.8
			c0.1,0.7,0.2,1.4,0.3,2.1c0.1,0.4,0.1,0.8,0.2,1.2c0.4,1,1.6,1.6,2.6,2.1c3.4,1.5,7.2,1.5,10.8,0.9c2.2-0.3,4.3-0.8,6.4-1.6
			c-1-1-2.1-2.1-3.1-3.1c-2.5,7.9-0.4,17.3,3.3,24.6c0.7-1.3,1.4-2.5,2.2-3.8c0.5,0.1-0.1,0-0.1-0.1c-0.2-0.1,0.2,0.1-0.2-0.1
			c-0.5-0.3-0.4-0.2-0.8-0.6c-0.7-0.7-1.3-1.3-1.7-2c-0.7-0.9-1.3-1.9-1.8-2.9c-1.3-2.5-5.4-0.8-4.6,1.9c1.7,5.5,3.2,11.1,2.6,16.9
			c0,0.2,0.1-0.5,0,0.1c0,0.1-0.1,0.3-0.1,0.4c-0.1,0.3-0.1,0.6-0.2,0.9c-0.1,0.2-0.2,0.5-0.2,0.7c0.2-0.8,0.1-0.2,0,0
			c-0.1,0.1-0.2,0.3-0.2,0.4c-0.2,0.5,0.5-0.5,0.2-0.2c-0.2,0.2-0.6,0.5,0.3-0.2c1.1,0.3,2.3,0.6,3.4,0.9c-1.6-2.8-3.2-5.7-4.7-8.5
			c-0.7-1.2-2.3-1.6-3.4-0.9c-4.3,2.5-8.6,5-13,7.5c-7.6,4.4-15.2,8.7-22.8,13.1c-2.6,1.5-5.2,3-7.7,4.4c-2.6,1.5-5.2,2.8-8.3,2.1
			c-3-0.6-6-2.3-8.7-3.7c-3-1.5-5.9-3.3-8.8-5.1c-5.5-3.5-10.8-7.4-15.8-11.5c-6.4-5.2-12.4-10.8-18.3-16.6
			c-0.1-0.1-0.2-0.2-0.3-0.3c-1-1-2.5-0.8-3.5,0c-3.6,2.9-7.1,5.7-10.7,8.6c1.2,1.2,2.4,2.4,3.5,3.5c3.9-4,6.3-9.3,7.3-14.7
			c0.6-2.8,1-5.8,0.9-8.6c-0.1-3.2-4.8-3.2-5,0c0,0.7,0.1-0.4-0.1,0.3c-0.1,0.4,0.1-0.1-0.1,0.2c-0.3,0.6-0.2,0.4-0.6,0.8
			c-0.7,0.8-1.1,1-2,1.6c-0.7,0.4-1.4,0.8-2.1,1.2c-0.2,0.1-0.5,0.2-0.7,0.3c0.7-0.4,0.4-0.2,0.2-0.1c0.6,1.5,1.3,3,1.9,4.6
			c1.6-1.1,2.4-2.9,3.1-4.7c0.7-2.1,1.2-4.3,1.6-6.5C31,89.8,31.5,84.9,32,80c0.1-1.1,0.2-2.2,0.3-3.3c0.1-1.3-1.2-2.5-2.5-2.5
			C28.3,74.3,27.3,75.4,27.2,76.8z"/>
	</g>
</g>
<path class="st1" d="M100.8,75.1c0,0.6-2,1.2-3.8,1c-1.7-0.2-1.8-1-3.7-1.5c-2-0.5-2.5,0.2-4.3-0.3c-1.5-0.5-2.9-1.5-2.8-2
	c0.3-0.9,6.3,0.2,7.5,0.5C95.7,73.1,100.9,74.1,100.8,75.1z"/>
<path class="st0" d="M159.2,45.6C159.2,45.6,159.2,45.6,159.2,45.6c-0.6-0.9-1.5-2-2.9-2.8c-2.6-1.6-5.4-1.5-7.3-1.1
	c-1.6,0.3-3.3-0.1-4.5-1.3c-6.5-6.1-24.8-20.7-52-21.1c-30.8-0.4-50.7,17.7-54.7,21.6C37.7,41,37.6,41,37.5,41
	c-1.3-0.3-7.6-1.7-12.8,2.3c-2.6,2-3.8,4.5-4.4,5.9c0,0,0,0,0,0.1c-0.1,1.7,0,5.7,2.5,9.6c1.3,2,2.8,3.4,3.9,4.2
	c0,0,0.1,0.1,0.1,0.1c0.5,1.5,1,3.5,1.2,5.8c0.2,2.2,0.2,4.2,0.1,5.8c0,0,0,0.1,0,0.1c0.4,1.4,1.6,2.3,2.9,2.2
	c0.9,0,1.7-0.5,2.2-1.2c0.4-0.6,0.8-1.2,1.4-1.6c1.4-1.2,3.5-2.8,6.4-3.8c4.6-1.7,8.7-1.2,10.5-0.9c0.2,0,1.5,0.4,1.9,1.3
	c0.4,1.1-0.5,2.9-2.6,3.6c0,0-0.1,0-0.1,0.1c-1,1.1-2.8,3.3-3.6,6.6c-0.9,3.6-0.1,6.8,0.5,8.6c0.1,0.3,0.6,0.2,0.6-0.1
	c0.1-3.3,1.8-6.4,4.6-8.1c4.2-2.7,8.7-1.1,9.2-0.9c2.7,1.1,5.4,2.1,8.1,3.2c3.1,1.2,6.1,2.4,9.1,3.6c2.1,1.4,4.8,0.6,5.5-1.1
	c0.6-1.3,0-3.2-1.5-4.2c-0.9-0.6-1.8-1.3-2.4-2.2c-0.9-1.3-1.8-3.1-1.5-5.3c0.6-3.9,4.9-7.2,10.2-6.7c0,0,0,0,0,0
	c4.6,1,9.3,2,13.9,3c2.3,0.5,3.9,2.6,3.7,4.8c-0.2,1.8-1.6,3.4-3.5,3.9c-0.6,0.1-2.3,0.6-3.7,2.1c0,0,0,0,0,0
	c-1.4,1.6-1.2,4,0.4,5.3c0.9,0.7,2,1.4,3.5,1.8c2.1,0.5,3.9,0.2,5.3-0.2c1.2-0.4,2.3-1.2,3.2-2.2c0.8-0.9,1.8-2,3.3-2.9
	c0.3-0.2,0.6-0.4,0.9-0.5c4-2.2,9.1-1.1,11.8,2.7c0,0,0,0,0.1,0.1c0.7,1,1.2,2,1.6,2.9c0.9,2.2,2.9,3.8,5.2,4.3
	c2,0.4,4.5,0.6,7.2,0.2c2.5-0.3,4.6-1.1,6.3-1.9c2-1,2.9-3.4,1.9-5.4c0,0,0-0.1,0-0.1c-0.2-2.4-0.2-5.1,0.1-8.2
	c0.4-4,1.3-7.4,2.3-10.2c0.6-1.8,1.7-3.5,3-4.9c1.5-1.6,3.4-4.2,4.1-7.8C160.9,50.5,159.7,47.1,159.2,45.6z M62.9,64.4
	c-3.3,0.4-6.1-1.1-6.4-3.3c-0.3-2.2,2.2-4.3,5.5-4.6c3.3-0.4,6.1,1.1,6.4,3.3C68.6,62,66.2,64,62.9,64.4z M73.6,50.6
	c-3.5,1.8-7.4,2.9-11.3,2.9c-0.8,0-1.7-0.1-2.5-0.1c-1,0-2,0.2-2.9,0.5c-1.9,0.5-3.6,1.4-5.2,2.5c-1.3,0.9-2.6-1.2-1.3-2.2
	C53.5,52,57.2,50.8,61,51c3.9,0.2,7.9-0.7,11.4-2.5C73.7,47.7,75,49.8,73.6,50.6z M119.4,67c-3.3,0.4-6.1-1.1-6.4-3.3
	c-0.3-2.2,2.2-4.3,5.5-4.6c3.3-0.4,6.1,1.1,6.4,3.3C125.1,64.5,122.7,66.6,119.4,67z M130,55.5c-0.4,0.4-1.3,0.5-1.8,0
	c-2.7-3.4-6.6-6.5-11.1-5c-1.8,0.6-3.3,1.6-4.5,3.1c-0.4,0.5-1.3,0.4-1.8,0c-0.5-0.5-0.4-1.2,0-1.8c0.4-0.4,0.8-0.8,1.2-1.2
	c2-1.7,4.5-3,7.2-3c4.4-0.1,8.1,2.9,10.7,6.2C130.4,54.3,130.5,55,130,55.5z"/>
<path class="st2" d="M54.6,99.1c0,0-0.6,11.1,0.9,12.1c1.5,1,8.2-8,8.2-8S59,102.1,54.6,99.1z"/>
<path class="st2" d="M123.5,103.9c0,0-0.4,11.1-2,12s-7.4-8.7-7.4-8.7S118.9,106.5,123.5,103.9z"/>
<g>
	<rect y="162.1" class="st3" width="228" height="70"/>
	<text transform="matrix(1 0 0 1 -1.794921e-04 201.4989)" class="st4 st5 st6">NUTRIS</text>
</g>
</svg>
